<svg width="40" height="45" viewBox="0 0 40 45" fill="none" xmlns="http://www.w3.org/2000/svg">
<path fill-rule="evenodd" clip-rule="evenodd" d="M3.61111 40.5014L0 0H39.6804L36.0654 40.4948L19.8162 45L3.61111 40.5014Z" fill="#0071BC"/>
<path fill-rule="evenodd" clip-rule="evenodd" d="M19.8735 41.5543L32.9874 37.9466L36.0599 3.37292H19.8735V41.5543Z" fill="#29ABE2"/>
<path fill-rule="evenodd" clip-rule="evenodd" d="M8.26587 18.253L8.70087 23.213L19.8736 18.253V13.2849L8.26587 18.253Z" fill="#B3B3B3"/>
<path fill-rule="evenodd" clip-rule="evenodd" d="M32.2477 7.98169L19.8735 13.2849V18.2529L31.821 12.9417L32.2477 7.98169Z" fill="#E6E6E6"/>
<path fill-rule="evenodd" clip-rule="evenodd" d="M19.8735 31.2308L19.8351 31.2366L14.2943 29.7486L13.9323 25.7922H8.94556L9.64145 33.5864L19.834 36.4086L19.8735 36.3993V31.2308Z" fill="#E6E6E6"/>
<path fill-rule="evenodd" clip-rule="evenodd" d="M19.8735 18.2529V23.213H25.9399L25.3885 29.6978L19.8735 31.2351V36.4031L30.0323 33.581L31.37 18.2529H19.8735Z" fill="white"/>
<path fill-rule="evenodd" clip-rule="evenodd" d="M19.8736 18.2529H8.26587L8.70087 23.213H19.8736V18.2529Z" fill="#E6E6E6"/>
<path fill-rule="evenodd" clip-rule="evenodd" d="M19.8735 12.9417V7.98169H19.8231H7.38391L7.82407 12.9417H19.8735Z" fill="#E6E6E6"/>
<path fill-rule="evenodd" clip-rule="evenodd" d="M19.8735 7.98169V12.8795V12.9417H31.821L32.2477 7.98169H19.8735Z" fill="white"/>
</svg>
