<svg width="45" height="45" viewBox="0 0 45 45" fill="none" xmlns="http://www.w3.org/2000/svg">
<path fill-rule="evenodd" clip-rule="evenodd" d="M6.24772 40.5016L2.63672 0H42.3154L38.7006 40.4953L22.4518 45L6.24772 40.5016Z" fill="#E44D26"/>
<path fill-rule="evenodd" clip-rule="evenodd" d="M22.4761 41.5568L35.6059 37.9167L38.695 3.31158H22.4761V41.5568Z" fill="#F16529"/>
<path d="M15.9029 18.3331H22.476V23.3004H11.36L10.0203 8.27905H22.476V13.2465H15.449L15.9029 18.3331Z" fill="#EBEBEB"/>
<path d="M22.4543 31.2397L22.476 31.2339V36.402L22.4532 36.4084L12.2779 33.5836L11.582 25.7842H16.5684L16.9221 29.7459L22.4543 31.2397Z" fill="#EBEBEB"/>
<path d="M22.4589 8.27905H34.9022L34.4574 13.2465H22.4589V8.27905Z" fill="white"/>
<path d="M22.4589 23.3004V18.3331H34.0054L33.8842 19.667L32.6422 33.5837L22.4589 36.406V31.238L27.999 29.7427L28.5756 23.3004H22.4589Z" fill="white"/>
</svg>
