<svg width="45" height="39" viewBox="0 0 45 39" fill="none" xmlns="http://www.w3.org/2000/svg">
<path d="M26.5183 19.4639C26.5183 17.3122 24.7194 15.5678 22.5 15.5678C20.2808 15.5678 18.4817 17.3122 18.4817 19.4639C18.4817 21.6157 20.2808 23.3601 22.5 23.3601C24.7194 23.3601 26.5183 21.6157 26.5183 19.4639Z" fill="#53C1DE"/>
<path fill-rule="evenodd" clip-rule="evenodd" d="M35.5505 12.2306C36.3992 8.88718 37.4658 2.68722 33.7056 0.585241C29.963 -1.50758 25.0927 2.50264 22.5209 4.90978C19.9566 2.52663 14.9495 -1.46645 11.1924 0.642204C7.45126 2.74204 8.60496 8.83919 9.47235 12.2035C5.98247 13.1646 0 15.2346 0 19.4639C0 23.6811 5.97624 25.9332 9.44547 26.8933C8.57487 30.2763 7.47894 36.2864 11.2249 38.3815C14.9959 40.4898 19.9875 36.5918 22.583 34.1583C25.1713 36.5796 29.9949 40.5031 33.7383 38.4021C37.4935 36.2945 36.5154 30.1776 35.6479 26.7937C39.0109 25.8315 45 23.6285 45 19.4639C45 15.2752 38.9855 13.1884 35.5505 12.2306ZM35.1244 25.0004C34.5548 23.2524 33.786 21.3934 32.8456 19.4731C33.7432 17.5982 34.4821 15.7632 35.0357 14.0263C37.5538 14.7341 43.0778 16.3519 43.0778 19.4639C43.0778 22.6049 37.777 24.2381 35.1244 25.0004ZM32.7749 36.789C29.9821 38.3565 25.8332 34.6045 23.9218 32.8213C25.1898 31.4766 26.457 29.9133 27.6937 28.1774C29.8693 27.9903 31.9246 27.6843 33.7884 27.2666C34.3989 29.6601 35.5803 35.2144 32.7749 36.789ZM12.1854 36.7666C9.39214 35.205 10.6689 29.8419 11.3093 27.35C13.1525 27.7453 15.1929 28.0297 17.3736 28.2012C18.6185 29.8998 19.9224 31.4612 21.2364 32.8285C19.6129 34.3511 14.9918 38.3355 12.1854 36.7666ZM1.92223 19.4639C1.92223 16.311 7.4131 14.705 9.98856 13.9989C10.5518 15.7748 11.2904 17.6316 12.1818 19.5092C11.2789 21.4149 10.5297 23.3012 9.96128 25.098C7.50554 24.4164 1.92223 22.6187 1.92223 19.4639ZM12.1556 2.25531C14.9603 0.681246 19.3121 4.51474 21.1738 6.24019C19.8666 7.60131 18.5747 9.1509 17.3405 10.8397C15.2241 11.0299 13.1981 11.3354 11.3356 11.7445C10.6369 9.03107 9.35387 3.82768 12.1556 2.25531ZM29.0689 12.8656C30.5048 13.0414 31.8803 13.275 33.1721 13.561C32.7843 14.7661 32.301 16.0262 31.7318 17.318C30.9066 15.7999 30.0208 14.3124 29.0689 12.8656ZM22.5215 7.57216C23.4081 8.50345 24.2962 9.54346 25.1697 10.6717C23.3978 10.5905 21.623 10.5901 19.8511 10.6705C20.7253 9.55272 21.6209 8.51426 22.5215 7.57216ZM13.2848 17.3167C12.7249 16.0293 12.246 14.7636 11.8548 13.5413C13.1388 13.2626 14.508 13.035 15.9345 12.8622C14.9799 14.3057 14.0956 15.7927 13.2848 17.3167ZM15.9755 26.1986C14.5018 26.0391 13.1119 25.823 11.8283 25.5521C12.2257 24.3082 12.7152 23.0152 13.2869 21.7003C14.109 23.2399 15.0067 24.7413 15.9755 26.1986ZM22.5747 31.4872C21.6636 30.5339 20.7548 29.4796 19.8672 28.3456C21.6493 28.4135 23.4347 28.4136 25.2165 28.3365C24.3402 29.4912 23.4553 30.5471 22.5747 31.4872ZM31.7501 21.6333C32.3515 22.9625 32.8586 24.2485 33.2613 25.4714C31.9564 25.7601 30.5478 25.9926 29.0635 26.1652C30.0225 24.6911 30.9223 23.1804 31.7501 21.6333ZM26.6209 26.3911C23.8952 26.5799 21.1523 26.5779 18.4257 26.4066C16.8763 24.2122 15.4972 21.9044 14.3066 19.5087C15.4913 17.1178 16.8605 14.8146 18.4026 12.6237C21.1313 12.4237 23.8767 12.4232 26.6054 12.6249C28.1341 14.8157 29.5013 17.1129 30.7135 19.4822C29.5156 21.8719 28.1393 24.1797 26.6209 26.3911ZM32.7455 2.19989C35.5509 3.76881 34.3021 9.34089 33.6893 11.7638C31.8224 11.3462 29.795 11.0353 27.6724 10.8422C26.4359 9.13506 25.1547 7.58278 23.8686 6.23923C25.7543 4.47661 29.9671 0.646332 32.7455 2.19989Z" fill="#53C1DE"/>
</svg>
