<svg width="45" height="27" viewBox="0 0 45 27" fill="none" xmlns="http://www.w3.org/2000/svg">
<path d="M22.5 0C16.5 0 12.75 3 11.25 9C13.5 6 16.125 4.875 19.125 5.625C20.8367 6.05292 22.0601 7.29467 23.4142 8.66925C25.6203 10.9084 28.1734 13.5 33.75 13.5C39.75 13.5 43.5 10.5 45 4.5C42.75 7.5 40.125 8.625 37.125 7.875C35.4133 7.44708 34.1899 6.20533 32.8358 4.83075C30.6297 2.59158 28.0766 0 22.5 0ZM11.25 13.5C5.25 13.5 1.5 16.5 0 22.5C2.25 19.5 4.875 18.375 7.875 19.125C9.58667 19.5529 10.8101 20.7947 12.1642 22.1693C14.3702 24.4084 16.9234 27 22.5 27C28.5 27 32.25 24 33.75 18C31.5 21 28.875 22.125 25.875 21.375C24.1633 20.9471 22.9399 19.7053 21.5858 18.3307C19.3797 16.0916 16.8266 13.5 11.25 13.5Z" fill="url(#paint0_linear_68_117)"/>
<defs>
<linearGradient id="paint0_linear_68_117" x1="-1.25" y1="8.64" x2="37.6149" y2="31.0486" gradientUnits="userSpaceOnUse">
<stop stop-color="#2298BD"/>
<stop offset="1" stop-color="#0ED7B5"/>
</linearGradient>
</defs>
</svg>
