<svg width="44" height="44" viewBox="0 0 44 44" fill="none" xmlns="http://www.w3.org/2000/svg">
<rect y="2" width="42" height="41" fill="#D9D9D9"/>
<path d="M0 21.9727V43.9453H43.9453V0H0V21.9727ZM35.4129 20.2148C36.4654 20.4591 37.4221 21.0096 38.1621 21.7969C38.5695 22.221 38.9237 22.6933 39.2168 23.2031C39.2168 23.2594 37.3184 24.5426 36.1617 25.2598C36.1195 25.2879 35.9508 25.1051 35.7645 24.8273C35.5533 24.463 35.2533 24.1581 34.8924 23.9411C34.5316 23.7241 34.1216 23.602 33.7008 23.5863C32.3684 23.4949 31.5105 24.1945 31.5176 25.3441C31.5066 25.6304 31.5721 25.9143 31.7074 26.1668C31.9992 26.775 32.5441 27.1371 34.2527 27.8754C37.3992 29.2289 38.7457 30.1219 39.5824 31.391C40.5176 32.7973 40.725 35.0684 40.0922 36.7488C39.3891 38.577 37.6664 39.818 35.2301 40.2293C34.1173 40.3567 32.993 40.3449 31.8832 40.1941C30.1822 39.9138 28.6154 39.0971 27.4113 37.8633C27.007 37.4168 26.2195 36.2531 26.2688 36.1688C26.3971 36.0735 26.5322 35.9877 26.673 35.9121L28.3008 35.0121L29.5629 34.2809L29.8266 34.6711C30.2715 35.3076 30.8379 35.85 31.493 36.2672C32.8992 37.0055 34.8187 36.9035 35.768 36.0492C36.0867 35.7362 36.2855 35.3213 36.3298 34.8767C36.3741 34.4322 36.2612 33.9862 36.0105 33.6164C35.659 33.1277 34.9559 32.7164 32.9906 31.8586C30.723 30.8812 29.7457 30.2766 28.8527 29.3133C28.2953 28.6776 27.8837 27.9276 27.6469 27.116C27.4702 26.1888 27.4441 25.2391 27.5695 24.3035C28.0371 22.1133 29.6789 20.584 32.0766 20.1305C33.1869 19.9931 34.3117 20.0239 35.4129 20.2219V20.2148ZM25.098 22.057V23.857H19.3922V40.1098H15.3457V23.8535H9.62578V22.0957C9.60796 21.4895 9.62205 20.8828 9.66797 20.2781C9.69609 20.2465 13.1836 20.2465 17.4023 20.2465H25.077L25.098 22.057Z" fill="#007ACC"/>
</svg>
